<svg width="17" height="16" viewBox="0 0 17 16" fill="none" xmlns="http://www.w3.org/2000/svg">
<path d="M13.6667 3.66699L13.2536 10.3504C13.148 12.0579 13.0952 12.9117 12.6672 13.5256C12.4556 13.8291 12.1832 14.0852 11.8672 14.2777C11.2281 14.667 10.3727 14.667 8.66182 14.667C6.94877 14.667 6.09222 14.667 5.45272 14.2769C5.13655 14.0841 4.86402 13.8275 4.65247 13.5235C4.22461 12.9087 4.17299 12.0537 4.06976 10.3438L3.66669 3.66699" stroke="#94A3B8" stroke-linecap="round"/>
<path d="M6.66669 7.82324H10.6667" stroke="#94A3B8" stroke-linecap="round"/>
<path d="M7.66669 10.4365H9.66669" stroke="#94A3B8" stroke-linecap="round"/>
<path d="M2.66669 3.66683H14.6667M11.3704 3.66683L10.9153 2.72798C10.613 2.10434 10.4618 1.79251 10.201 1.59804C10.1432 1.5549 10.082 1.51652 10.0179 1.4833C9.72915 1.3335 9.38262 1.3335 8.68955 1.3335C7.97909 1.3335 7.62389 1.3335 7.33035 1.48958C7.26529 1.52417 7.20321 1.5641 7.14475 1.60894C6.88099 1.8113 6.73365 2.13453 6.43897 2.781L6.03517 3.66683" stroke="#94A3B8" stroke-linecap="round"/>
</svg>
