<svg width="17" height="16" viewBox="0 0 17 16" fill="none" xmlns="http://www.w3.org/2000/svg">
<path d="M11.964 2.11553C12.3555 1.72402 12.5512 1.52826 12.7681 1.43465C13.0806 1.29978 13.4348 1.29978 13.7472 1.43465C13.964 1.52826 14.1598 1.72402 14.5513 2.11553C14.9428 2.50704 15.1386 2.7028 15.2322 2.91966C15.3671 3.2321 15.3671 3.58632 15.2322 3.89876C15.1386 4.11562 14.9428 4.31138 14.5513 4.70289L11.2036 8.05063C10.3788 8.87543 9.96642 9.28783 9.44989 9.53217C8.93335 9.7765 8.35295 9.83377 7.19217 9.9483L6.66669 10.0002L6.71854 9.4747C6.83307 8.3139 6.89035 7.7335 7.13469 7.21696C7.37902 6.70043 7.79142 6.28805 8.61622 5.46326L11.964 2.11553Z" stroke="#94A3B8" stroke-linejoin="round"/>
<path d="M4.66673 10H3.16673C2.52239 10 2.00006 10.5223 2.00006 11.1667C2.00006 11.811 2.52239 12.3333 3.16673 12.3333H9.50006C10.1444 12.3333 10.6667 12.8557 10.6667 13.5C10.6667 14.1443 10.1444 14.6667 9.50006 14.6667H8.00006" stroke="#94A3B8" stroke-linecap="round" stroke-linejoin="round"/>
</svg>
